<svg xmlns="http://www.w3.org/2000/svg" viewBox="0 0 1200 630" width="1200" height="630">
  <defs>
    <linearGradient id="g" x1="0" y1="0" x2="1" y2="1">
      <stop offset="0" stop-color="#f4d98a" />
      <stop offset="0.5" stop-color="#e7ac34" />
      <stop offset="1" stop-color="#d9911e" />
    </linearGradient>
    <radialGradient id="glow1" cx="0.5" cy="0.5" r="0.5">
      <stop offset="0" stop-color="#d9911e" stop-opacity="0.4" />
      <stop offset="1" stop-color="#d9911e" stop-opacity="0" />
    </radialGradient>
    <radialGradient id="bg" cx="0.5" cy="0.35" r="0.85">
      <stop offset="0" stop-color="#1d1a16" />
      <stop offset="1" stop-color="#0c0b09" />
    </radialGradient>
  </defs>

  <!-- Background + ambient mesh -->
  <rect width="1200" height="630" fill="url(#bg)" />
  <ellipse cx="280" cy="140" rx="420" ry="220" fill="url(#glow1)" />
  <ellipse cx="1000" cy="180" rx="380" ry="180" fill="url(#glow1)" opacity="0.6" />

  <!-- Brand glyph tile -->
  <rect x="80" y="200" width="96" height="96" rx="22" fill="url(#g)" />
  <g fill="none" stroke="#131110" stroke-width="7" stroke-linecap="round" stroke-linejoin="round" transform="translate(80 200)">
    <circle cx="44" cy="48" r="22" />
    <path d="M60 34 L76 18 M76 18 L60 18 M76 18 L76 34" />
  </g>

  <!-- Wordmark with gradient -->
  <text x="200" y="270" font-family="'Space Grotesk', 'Inter', sans-serif" font-size="68" font-weight="700" fill="#f7f5f1">Paimon<tspan fill="url(#g)">.io</tspan></text>
  <text x="200" y="305" font-family="'Inter', sans-serif" font-size="22" fill="#8a8074">a hub of io projects</text>

  <!-- Hairline -->
  <line x1="80" y1="370" x2="1120" y2="370" stroke="#2e2a24" stroke-width="1" />

  <!-- Tagline -->
  <text x="80" y="425" font-family="'Space Grotesk', sans-serif" font-size="32" font-weight="600" fill="url(#g)">Privacy-first tools &amp; apps.</text>
  <text x="80" y="465" font-family="'Inter', sans-serif" font-size="20" fill="#b8ad9c">One doorway to every io project.</text>

  <!-- Domain pill -->
  <rect x="80" y="500" width="290" height="44" rx="22" fill="#1d1a16" stroke="#2e2a24" stroke-width="1" />
  <circle cx="104" cy="522" r="4" fill="#34d399" />
  <text x="120" y="529" font-family="'JetBrains Mono', monospace" font-size="16" fill="#b8ad9c">paimonchan.github.io</text>
</svg>
